<mxfile host="app.diagrams.net" modified="2023-06-17T09:06:56.044Z" agent="Mozilla/5.0 (Macintosh; Intel Mac OS X 10_15_7) AppleWebKit/537.36 (KHTML, like Gecko) Chrome/114.0.0.0 Safari/537.36" etag="XSeY8iLiGzwE7zVyp_kL" version="21.4.0" type="device">
  <diagram name="Page-1" id="uFMDWzQYWcf9r_OQGe0A">
    <mxGraphModel dx="1518" dy="941" grid="1" gridSize="10" guides="1" tooltips="1" connect="1" arrows="1" fold="1" page="1" pageScale="1" pageWidth="827" pageHeight="1169" math="0" shadow="0">
      <root>
        <mxCell id="0" />
        <mxCell id="1" parent="0" />
        <mxCell id="WRrme6WCNWswc6TFWZnq-1" value="Client needs a building" style="rounded=1;whiteSpace=wrap;html=1;" vertex="1" parent="1">
          <mxGeometry x="100" y="340" width="100" height="60" as="geometry" />
        </mxCell>
        <mxCell id="WRrme6WCNWswc6TFWZnq-2" value="designer" style="rounded=0;whiteSpace=wrap;html=1;" vertex="1" parent="1">
          <mxGeometry x="240" y="220" width="100" height="60" as="geometry" />
        </mxCell>
        <mxCell id="WRrme6WCNWswc6TFWZnq-3" value="Client commissions a design" style="rounded=1;whiteSpace=wrap;html=1;" vertex="1" parent="1">
          <mxGeometry x="240" y="340" width="100" height="60" as="geometry" />
        </mxCell>
        <mxCell id="WRrme6WCNWswc6TFWZnq-6" value="" style="endArrow=classic;html=1;rounded=0;exitX=1;exitY=0.5;exitDx=0;exitDy=0;entryX=0;entryY=0.5;entryDx=0;entryDy=0;" edge="1" parent="1" source="WRrme6WCNWswc6TFWZnq-1" target="WRrme6WCNWswc6TFWZnq-3">
          <mxGeometry width="50" height="50" relative="1" as="geometry">
            <mxPoint x="390" y="410" as="sourcePoint" />
            <mxPoint x="440" y="360" as="targetPoint" />
          </mxGeometry>
        </mxCell>
        <mxCell id="WRrme6WCNWswc6TFWZnq-8" value="design of building gets fragmented into&lt;br style=&quot;border-color: var(--border-color);&quot;&gt;customisable components" style="shape=process;whiteSpace=wrap;html=1;backgroundOutline=1;" vertex="1" parent="1">
          <mxGeometry x="390" y="320" width="120" height="100" as="geometry" />
        </mxCell>
        <mxCell id="WRrme6WCNWswc6TFWZnq-9" value="Components&lt;br&gt;minted into Non-Fungible-Tokens" style="rhombus;whiteSpace=wrap;html=1;" vertex="1" parent="1">
          <mxGeometry x="550" y="295" width="150" height="150" as="geometry" />
        </mxCell>
        <mxCell id="WRrme6WCNWswc6TFWZnq-10" value="" style="endArrow=classic;html=1;rounded=0;exitX=1;exitY=0.5;exitDx=0;exitDy=0;entryX=0;entryY=0.5;entryDx=0;entryDy=0;" edge="1" parent="1" source="WRrme6WCNWswc6TFWZnq-3" target="WRrme6WCNWswc6TFWZnq-8">
          <mxGeometry width="50" height="50" relative="1" as="geometry">
            <mxPoint x="390" y="410" as="sourcePoint" />
            <mxPoint x="440" y="360" as="targetPoint" />
          </mxGeometry>
        </mxCell>
        <mxCell id="WRrme6WCNWswc6TFWZnq-12" value="" style="endArrow=classic;html=1;rounded=0;entryX=0;entryY=0.5;entryDx=0;entryDy=0;exitX=1;exitY=0.5;exitDx=0;exitDy=0;" edge="1" parent="1" source="WRrme6WCNWswc6TFWZnq-8" target="WRrme6WCNWswc6TFWZnq-9">
          <mxGeometry width="50" height="50" relative="1" as="geometry">
            <mxPoint x="390" y="410" as="sourcePoint" />
            <mxPoint x="440" y="360" as="targetPoint" />
          </mxGeometry>
        </mxCell>
        <mxCell id="WRrme6WCNWswc6TFWZnq-13" value="Tokens get deposited into a common pool" style="shape=process;whiteSpace=wrap;html=1;backgroundOutline=1;" vertex="1" parent="1">
          <mxGeometry x="760" y="340" width="120" height="60" as="geometry" />
        </mxCell>
        <mxCell id="WRrme6WCNWswc6TFWZnq-14" value="" style="endArrow=classic;html=1;rounded=0;exitX=1;exitY=0.5;exitDx=0;exitDy=0;" edge="1" parent="1" source="WRrme6WCNWswc6TFWZnq-9" target="WRrme6WCNWswc6TFWZnq-13">
          <mxGeometry width="50" height="50" relative="1" as="geometry">
            <mxPoint x="710" y="260" as="sourcePoint" />
            <mxPoint x="760" y="210" as="targetPoint" />
          </mxGeometry>
        </mxCell>
        <mxCell id="WRrme6WCNWswc6TFWZnq-15" value="Client pays for Fabrication" style="rounded=1;whiteSpace=wrap;html=1;" vertex="1" parent="1">
          <mxGeometry x="770" y="460" width="100" height="60" as="geometry" />
        </mxCell>
        <mxCell id="WRrme6WCNWswc6TFWZnq-16" value="" style="endArrow=classic;html=1;rounded=0;exitX=0.5;exitY=1;exitDx=0;exitDy=0;" edge="1" parent="1" source="WRrme6WCNWswc6TFWZnq-13" target="WRrme6WCNWswc6TFWZnq-15">
          <mxGeometry width="50" height="50" relative="1" as="geometry">
            <mxPoint x="580" y="540" as="sourcePoint" />
            <mxPoint x="630" y="490" as="targetPoint" />
          </mxGeometry>
        </mxCell>
        <mxCell id="WRrme6WCNWswc6TFWZnq-18" value="Components get fabricated locally in a fabrication workshop" style="shape=process;whiteSpace=wrap;html=1;backgroundOutline=1;" vertex="1" parent="1">
          <mxGeometry x="920" y="460" width="120" height="60" as="geometry" />
        </mxCell>
        <mxCell id="WRrme6WCNWswc6TFWZnq-19" value="" style="endArrow=classic;html=1;rounded=0;exitX=1;exitY=0.5;exitDx=0;exitDy=0;entryX=0;entryY=0.5;entryDx=0;entryDy=0;" edge="1" parent="1" source="WRrme6WCNWswc6TFWZnq-15" target="WRrme6WCNWswc6TFWZnq-18">
          <mxGeometry width="50" height="50" relative="1" as="geometry">
            <mxPoint x="900" y="620" as="sourcePoint" />
            <mxPoint x="950" y="570" as="targetPoint" />
          </mxGeometry>
        </mxCell>
        <mxCell id="WRrme6WCNWswc6TFWZnq-20" value="Components assembled into a building" style="shape=process;whiteSpace=wrap;html=1;backgroundOutline=1;" vertex="1" parent="1">
          <mxGeometry x="1080" y="460" width="120" height="60" as="geometry" />
        </mxCell>
        <mxCell id="WRrme6WCNWswc6TFWZnq-21" value="" style="endArrow=classic;html=1;rounded=0;exitX=1;exitY=0.5;exitDx=0;exitDy=0;entryX=0;entryY=0.5;entryDx=0;entryDy=0;" edge="1" parent="1" source="WRrme6WCNWswc6TFWZnq-18" target="WRrme6WCNWswc6TFWZnq-20">
          <mxGeometry width="50" height="50" relative="1" as="geometry">
            <mxPoint x="1100" y="420" as="sourcePoint" />
            <mxPoint x="1150" y="370" as="targetPoint" />
          </mxGeometry>
        </mxCell>
        <mxCell id="WRrme6WCNWswc6TFWZnq-22" value="" style="endArrow=classic;html=1;rounded=0;exitX=0.5;exitY=1;exitDx=0;exitDy=0;" edge="1" parent="1" source="WRrme6WCNWswc6TFWZnq-2" target="WRrme6WCNWswc6TFWZnq-3">
          <mxGeometry width="50" height="50" relative="1" as="geometry">
            <mxPoint x="620" y="420" as="sourcePoint" />
            <mxPoint x="670" y="370" as="targetPoint" />
          </mxGeometry>
        </mxCell>
        <mxCell id="WRrme6WCNWswc6TFWZnq-23" value="designer gets rewarded" style="rounded=0;whiteSpace=wrap;html=1;" vertex="1" parent="1">
          <mxGeometry x="410" y="220" width="100" height="60" as="geometry" />
        </mxCell>
        <mxCell id="WRrme6WCNWswc6TFWZnq-24" value="" style="endArrow=classic;html=1;rounded=0;exitX=0.5;exitY=0;exitDx=0;exitDy=0;entryX=0.5;entryY=1;entryDx=0;entryDy=0;" edge="1" parent="1" source="WRrme6WCNWswc6TFWZnq-13" target="WRrme6WCNWswc6TFWZnq-25">
          <mxGeometry width="50" height="50" relative="1" as="geometry">
            <mxPoint x="620" y="420" as="sourcePoint" />
            <mxPoint x="820" y="290" as="targetPoint" />
          </mxGeometry>
        </mxCell>
        <mxCell id="WRrme6WCNWswc6TFWZnq-25" value="designer re-uses the components&lt;br&gt;into a new design" style="shape=process;whiteSpace=wrap;html=1;backgroundOutline=1;" vertex="1" parent="1">
          <mxGeometry x="760" y="220" width="120" height="60" as="geometry" />
        </mxCell>
        <mxCell id="WRrme6WCNWswc6TFWZnq-27" value="Client commissions a design" style="rounded=1;whiteSpace=wrap;html=1;" vertex="1" parent="1">
          <mxGeometry x="770" y="100" width="100" height="60" as="geometry" />
        </mxCell>
        <mxCell id="WRrme6WCNWswc6TFWZnq-28" value="" style="endArrow=classic;html=1;rounded=0;exitX=0.5;exitY=1;exitDx=0;exitDy=0;entryX=0.5;entryY=0;entryDx=0;entryDy=0;" edge="1" parent="1" source="WRrme6WCNWswc6TFWZnq-27" target="WRrme6WCNWswc6TFWZnq-25">
          <mxGeometry width="50" height="50" relative="1" as="geometry">
            <mxPoint x="620" y="420" as="sourcePoint" />
            <mxPoint x="670" y="370" as="targetPoint" />
          </mxGeometry>
        </mxCell>
        <mxCell id="WRrme6WCNWswc6TFWZnq-29" value="" style="endArrow=classic;html=1;rounded=0;exitX=0;exitY=0.5;exitDx=0;exitDy=0;entryX=1;entryY=0.5;entryDx=0;entryDy=0;" edge="1" parent="1" source="WRrme6WCNWswc6TFWZnq-25" target="WRrme6WCNWswc6TFWZnq-23">
          <mxGeometry width="50" height="50" relative="1" as="geometry">
            <mxPoint x="620" y="420" as="sourcePoint" />
            <mxPoint x="670" y="370" as="targetPoint" />
          </mxGeometry>
        </mxCell>
        <mxCell id="WRrme6WCNWswc6TFWZnq-30" value="" style="endArrow=classic;html=1;rounded=0;exitX=0;exitY=0.5;exitDx=0;exitDy=0;entryX=1;entryY=0.5;entryDx=0;entryDy=0;" edge="1" parent="1" source="WRrme6WCNWswc6TFWZnq-23" target="WRrme6WCNWswc6TFWZnq-2">
          <mxGeometry width="50" height="50" relative="1" as="geometry">
            <mxPoint x="620" y="420" as="sourcePoint" />
            <mxPoint x="670" y="370" as="targetPoint" />
          </mxGeometry>
        </mxCell>
      </root>
    </mxGraphModel>
  </diagram>
</mxfile>
